M48
; DRILL file {KiCad 8.0.6} date 2025-02-16T13:00:21+0000
; FORMAT={-:-/ absolute / inch / decimal}
; #@! TF.CreationDate,2025-02-16T13:00:21+00:00
; #@! TF.GenerationSoftware,Kicad,Pcbnew,8.0.6
; #@! TF.FileFunction,Plated,1,2,PTH
FMAT,2
INCH
; #@! TA.AperFunction,Plated,PTH,ViaDrill
T1C0.0157
; #@! TA.AperFunction,Plated,PTH,ViaDrill
T2C0.0315
; #@! TA.AperFunction,Plated,PTH,ComponentDrill
T3C0.0315
; #@! TA.AperFunction,Plated,PTH,ComponentDrill
T4C0.0354
; #@! TA.AperFunction,Plated,PTH,ComponentDrill
T5C0.0394
; #@! TA.AperFunction,Plated,PTH,ComponentDrill
T6C0.0433
; #@! TA.AperFunction,Plated,PTH,ComponentDrill
T7C0.0472
; #@! TA.AperFunction,Plated,PTH,ComponentDrill
T8C0.0709
%
G90
G05
T1
X2.8564Y-7.1192
X3.0443Y-6.9085
X4.2448Y-6.2889
X4.8346Y-4.1854
X5.1202Y-6.4934
X5.6602Y-3.9496
X5.749Y-3.5959
X5.7882Y-5.6
X6.0141Y-7.3683
X6.132Y-3.5959
X6.1711Y-5.5833
X6.2524Y-7.1271
X6.2748Y-3.2868
X6.2748Y-4.4766
X6.4717Y-5.5912
X6.4859Y-7.2504
X6.4959Y-4.2749
X6.7219Y-3.6006
X7.0842Y-5.8358
X7.3443Y-4.8759
X7.9013Y-6.0715
X8.248Y-7.7953
X8.4779Y-3.3515
X8.4911Y-7.7219
X8.727Y-7.0329
X8.7302Y-4.8877
X8.845Y-6.4252
X8.9873Y-7.167
X9.2072Y-7.2419
X9.4485Y-7.0008
X9.5527Y-3.8317
X9.5799Y-6.5431
X9.9065Y-5.2463
X9.9065Y-7.2504
X9.9155Y-7.7309
X10.3954Y-6.0715
T2
X7.6378Y-7.0866
X7.9724Y-6.6407
X8.6039Y-6.2992
T3
X2.0547Y-4.6982
X2.0547Y-4.8491
X2.0547Y-5.0
X2.0547Y-5.1509
X2.3547Y-4.6982
X2.3547Y-4.8491
X2.3547Y-5.0
X2.3547Y-5.1509
X2.6213Y-6.1496
X2.6213Y-6.8858
X2.6213Y-7.6929
X2.6409Y-6.3189
X2.6409Y-6.6189
X2.6409Y-7.0551
X2.6409Y-7.3551
X2.6409Y-7.8622
X2.6409Y-8.1622
X2.7037Y-2.6717
X2.7037Y-3.0377
X2.7037Y-3.4038
X2.7037Y-3.7699
X2.7037Y-4.1359
X2.7037Y-4.502
X2.8055Y-6.3189
X2.8055Y-6.6189
X2.8055Y-7.0551
X2.8055Y-7.3551
X2.8055Y-7.8622
X2.8055Y-8.1622
X2.8181Y-6.1496
X2.8181Y-6.8858
X2.8181Y-7.6929
X2.9327Y-6.1496
X2.9327Y-6.8858
X2.9327Y-7.6929
X2.9701Y-6.3189
X2.9701Y-6.6189
X2.9701Y-7.0551
X2.9701Y-7.3551
X2.9701Y-7.8622
X2.9701Y-8.1622
X3.0037Y-2.6717
X3.0037Y-3.0377
X3.0037Y-3.4038
X3.0037Y-3.7699
X3.0037Y-4.1359
X3.0037Y-4.502
X3.1295Y-6.1496
X3.1295Y-6.8858
X3.1295Y-7.6929
X3.1299Y-6.326
X3.1299Y-6.626
X3.1299Y-7.0622
X3.1299Y-7.3622
X3.1299Y-7.8693
X3.1299Y-8.1693
X3.2299Y-6.326
X3.2299Y-6.626
X3.2299Y-7.0622
X3.2299Y-7.3622
X3.2299Y-7.8693
X3.2299Y-8.1693
X3.2441Y-6.1496
X3.2441Y-6.8858
X3.2441Y-7.6929
X3.3299Y-6.326
X3.3299Y-6.626
X3.3299Y-7.0622
X3.3299Y-7.3622
X3.3299Y-7.8693
X3.3299Y-8.1693
X3.4299Y-6.326
X3.4299Y-6.626
X3.4299Y-7.0622
X3.4299Y-7.3622
X3.4299Y-7.8693
X3.4299Y-8.1693
X3.4409Y-6.1496
X3.4409Y-6.8858
X3.4409Y-7.6929
X3.6803Y-6.5551
X3.6913Y-6.0787
X3.6913Y-6.3787
X3.6984Y-7.3228
X3.6984Y-8.0709
X3.7094Y-6.8465
X3.7094Y-7.1465
X3.7094Y-7.5945
X3.7094Y-7.8945
X3.7913Y-6.0787
X3.7913Y-6.3787
X3.8094Y-6.8465
X3.8094Y-7.1465
X3.8094Y-7.5945
X3.8094Y-7.8945
X3.8772Y-6.5551
X3.8913Y-6.0787
X3.8913Y-6.3787
X3.8953Y-7.3228
X3.8953Y-8.0709
X3.9094Y-6.8465
X3.9094Y-7.1465
X3.9094Y-7.5945
X3.9094Y-7.8945
X3.9913Y-6.0787
X3.9913Y-6.3787
X3.9917Y-6.5551
X4.0094Y-6.8465
X4.0094Y-7.1465
X4.0094Y-7.5945
X4.0094Y-7.8945
X4.0098Y-7.3228
X4.0098Y-8.0709
X4.1512Y-6.0858
X4.1512Y-6.3858
X4.1693Y-6.8535
X4.1693Y-7.1535
X4.1693Y-7.6016
X4.1693Y-7.9016
X4.1886Y-6.5551
X4.2067Y-7.3228
X4.2067Y-8.0709
X4.3031Y-6.5551
X4.3157Y-6.0858
X4.3157Y-6.3858
X4.3213Y-7.3228
X4.3213Y-8.0709
X4.3339Y-6.8535
X4.3339Y-7.1535
X4.3339Y-7.6016
X4.3339Y-7.9016
X4.4803Y-6.0858
X4.4803Y-6.3858
X4.4984Y-6.8535
X4.4984Y-7.1535
X4.4984Y-7.6016
X4.4984Y-7.9016
X4.5Y-6.5551
X4.5181Y-7.3228
X4.5181Y-8.0709
X4.8772Y-6.5748
X4.8772Y-6.7323
X5.1772Y-6.5748
X5.1772Y-6.7323
X5.2437Y-4.6457
X5.2937Y-4.3307
X5.4937Y-4.3307
X5.5437Y-4.6457
X5.878Y-2.9854
X5.878Y-3.2854
X5.878Y-4.1861
X5.878Y-4.4861
X5.8801Y-5.3869
X5.8801Y-5.6869
X6.0354Y-2.8007
X6.0354Y-4.0015
X6.0376Y-5.2023
X6.0453Y-2.9854
X6.0453Y-3.2854
X6.0453Y-4.1861
X6.0453Y-4.4861
X6.0474Y-5.3869
X6.0474Y-5.6869
X6.2126Y-2.9854
X6.2126Y-3.2854
X6.2126Y-4.1861
X6.2126Y-4.4861
X6.2148Y-5.3869
X6.2148Y-5.6869
X6.2323Y-2.8007
X6.2323Y-4.0015
X6.2344Y-5.2023
X6.337Y-2.9842
X6.337Y-3.0842
X6.337Y-3.1842
X6.337Y-3.2842
X6.337Y-4.185
X6.337Y-4.285
X6.337Y-4.385
X6.337Y-4.485
X6.3392Y-5.3857
X6.3392Y-5.4857
X6.3392Y-5.5857
X6.3392Y-5.6857
X6.4961Y-6.7004
X6.4961Y-7.0004
X6.637Y-2.9842
X6.637Y-3.0842
X6.637Y-3.1842
X6.637Y-3.2842
X6.637Y-4.185
X6.637Y-4.285
X6.637Y-4.385
X6.637Y-4.485
X6.6392Y-5.3857
X6.6392Y-5.4857
X6.6392Y-5.5857
X6.6392Y-5.6857
X6.8031Y-2.9976
X6.8031Y-3.1944
X6.8031Y-4.1983
X6.8031Y-4.3952
X6.8053Y-5.3991
X6.8053Y-5.596
X7.0Y-2.7401
X7.0Y-3.0635
X7.0Y-3.387
X7.0Y-3.5487
X7.0Y-3.9409
X7.0Y-4.2643
X7.0Y-4.5878
X7.0Y-4.7495
X7.0022Y-5.1417
X7.0022Y-5.4651
X7.0022Y-5.7886
X7.0022Y-5.9503
X7.0866Y-6.3386
X7.0866Y-6.5945
X7.0866Y-6.8504
X7.2835Y-6.3386
X7.2835Y-6.5945
X7.2835Y-6.8504
X7.3Y-2.7401
X7.3Y-3.0635
X7.3Y-3.387
X7.3Y-3.5487
X7.3Y-3.9409
X7.3Y-4.2643
X7.3Y-4.5878
X7.3Y-4.7495
X7.3022Y-5.1417
X7.3022Y-5.4651
X7.3022Y-5.7886
X7.3022Y-5.9503
X7.4213Y-6.3386
X7.4213Y-6.5945
X7.4394Y-6.8898
X7.4602Y-3.6078
X7.4602Y-4.8086
X7.4624Y-6.0094
X7.6181Y-6.3386
X7.6181Y-6.5945
X7.6394Y-6.8898
X7.689Y-2.7417
X7.689Y-2.9582
X7.689Y-3.1747
X7.689Y-3.3913
X7.689Y-3.9424
X7.689Y-4.159
X7.689Y-4.3755
X7.689Y-4.592
X7.6911Y-5.1432
X7.6911Y-5.3598
X7.6911Y-5.5763
X7.6911Y-5.7928
X7.7602Y-3.6078
X7.7602Y-4.8086
X7.7624Y-6.0094
X7.8858Y-2.7417
X7.8858Y-2.9582
X7.8858Y-3.1747
X7.8858Y-3.3913
X7.8858Y-3.9424
X7.8858Y-4.159
X7.8858Y-4.3755
X7.8858Y-4.592
X7.888Y-5.1432
X7.888Y-5.3598
X7.888Y-5.5763
X7.888Y-5.7928
X8.1496Y-2.8857
X8.1496Y-3.1023
X8.1496Y-3.3188
X8.1496Y-3.5354
X8.1496Y-4.0405
X8.1496Y-4.257
X8.1496Y-4.4736
X8.1496Y-4.6901
X8.1496Y-5.1953
X8.1496Y-5.4118
X8.1496Y-5.6283
X8.1496Y-5.8449
X8.2752Y-2.6692
X8.2752Y-3.824
X8.2752Y-4.9787
X8.3465Y-2.8857
X8.3465Y-3.1023
X8.3465Y-3.3188
X8.3465Y-3.5354
X8.3465Y-4.0405
X8.3465Y-4.257
X8.3465Y-4.4736
X8.3465Y-4.6901
X8.3465Y-5.1953
X8.3465Y-5.4118
X8.3465Y-5.6283
X8.3465Y-5.8449
X8.5752Y-2.6692
X8.5752Y-3.824
X8.5752Y-4.9787
X8.7354Y-2.7283
X8.7354Y-2.89
X8.7354Y-3.2135
X8.7354Y-3.5369
X8.7354Y-3.883
X8.7354Y-4.0448
X8.7354Y-4.3682
X8.7354Y-4.6917
X8.7354Y-5.0378
X8.7354Y-5.1995
X8.7354Y-5.523
X8.7354Y-5.8465
X9.0354Y-2.7283
X9.0354Y-2.89
X9.0354Y-3.2135
X9.0354Y-3.5369
X9.0354Y-3.883
X9.0354Y-4.0448
X9.0354Y-4.3682
X9.0354Y-4.6917
X9.0354Y-5.0378
X9.0354Y-5.1995
X9.0354Y-5.523
X9.0354Y-5.8465
X9.2323Y-3.0826
X9.2323Y-3.2794
X9.2323Y-4.2374
X9.2323Y-4.4342
X9.2323Y-5.3921
X9.2323Y-5.589
X9.3984Y-2.9928
X9.3984Y-3.0928
X9.3984Y-3.1928
X9.3984Y-3.2928
X9.3984Y-4.1476
X9.3984Y-4.2476
X9.3984Y-4.3476
X9.3984Y-4.4476
X9.3984Y-5.3024
X9.3984Y-5.4024
X9.3984Y-5.5024
X9.3984Y-5.6024
X9.6984Y-2.9928
X9.6984Y-3.0928
X9.6984Y-3.1928
X9.6984Y-3.2928
X9.6984Y-4.1476
X9.6984Y-4.2476
X9.6984Y-4.3476
X9.6984Y-4.4476
X9.6984Y-5.3024
X9.6984Y-5.4024
X9.6984Y-5.5024
X9.6984Y-5.6024
X9.8031Y-3.4763
X9.8031Y-4.6311
X9.8031Y-5.7858
X9.8228Y-2.9917
X9.8228Y-3.2917
X9.8228Y-4.1464
X9.8228Y-4.4464
X9.8228Y-5.3012
X9.8228Y-5.6012
X9.9902Y-2.9917
X9.9902Y-3.2917
X9.9902Y-4.1464
X9.9902Y-4.4464
X9.9902Y-5.3012
X9.9902Y-5.6012
X10.0Y-3.4763
X10.0Y-4.6311
X10.0Y-5.7858
X10.1575Y-2.9917
X10.1575Y-3.2917
X10.1575Y-4.1464
X10.1575Y-4.4464
X10.1575Y-5.3012
X10.1575Y-5.6012
T4
X2.1461Y-5.3701
X2.1461Y-5.685
X2.2461Y-5.3701
X2.2461Y-5.685
X6.3439Y-2.8204
X6.3439Y-4.0212
X6.3461Y-5.222
X6.4921Y-6.287
X6.4921Y-6.587
X6.6439Y-2.8204
X6.6439Y-4.0212
X6.6461Y-5.222
X7.0Y-2.9018
X7.0Y-3.2253
X7.0Y-4.1026
X7.0Y-4.4261
X7.0022Y-5.3034
X7.0022Y-5.6269
X7.3Y-2.9018
X7.3Y-3.2253
X7.3Y-4.1026
X7.3Y-4.4261
X7.3022Y-5.3034
X7.3022Y-5.6269
X8.7354Y-3.0517
X8.7354Y-3.3752
X8.7354Y-4.2065
X8.7354Y-4.53
X8.7354Y-5.3613
X8.7354Y-5.6847
X9.0354Y-3.0517
X9.0354Y-3.3752
X9.0354Y-4.2065
X9.0354Y-4.53
X9.0354Y-5.3613
X9.0354Y-5.6847
X9.3915Y-3.4566
X9.3915Y-4.6114
X9.3915Y-5.7661
X9.6915Y-3.4566
X9.6915Y-4.6114
X9.6915Y-5.7661
T5
X2.2362Y-6.7654
X2.2362Y-6.8654
X2.2362Y-6.9654
X2.2362Y-7.0654
X2.2362Y-7.1654
X2.2362Y-7.2654
X2.5031Y-6.1102
X2.5031Y-6.248
X2.5031Y-6.8465
X2.5031Y-6.9843
X2.5031Y-7.6535
X2.5031Y-7.7913
X2.5394Y-2.6772
X2.7543Y-2.8547
X2.7543Y-3.2208
X2.7543Y-3.5868
X2.7543Y-3.9529
X2.7543Y-4.319
X2.7543Y-4.685
X2.8543Y-2.8547
X2.8543Y-3.2208
X2.8543Y-3.5868
X2.8543Y-3.9529
X2.8543Y-4.319
X2.8543Y-4.685
X2.9543Y-2.8547
X2.9543Y-3.2208
X2.9543Y-3.5868
X2.9543Y-3.9529
X2.9543Y-4.319
X2.9543Y-4.685
X3.2087Y-2.6772
X3.2087Y-2.9278
X3.2087Y-3.1785
X3.2087Y-3.4409
X3.2087Y-3.5409
X3.2087Y-3.6409
X3.2087Y-3.7409
X3.2087Y-3.8409
X3.2087Y-3.9409
X3.2087Y-4.2034
X3.2087Y-4.4541
X3.2087Y-4.7047
X3.2697Y-5.7283
X3.3681Y-5.7283
X3.4665Y-5.7283
X3.5126Y-2.7654
X3.5126Y-2.8654
X3.5126Y-2.9654
X3.5126Y-3.0654
X3.5126Y-3.1654
X3.5126Y-3.2654
X3.5126Y-3.3654
X3.5126Y-3.4654
X3.5126Y-3.5654
X3.5126Y-3.6654
X3.5126Y-3.7654
X3.5126Y-3.8654
X3.5126Y-3.9654
X3.5126Y-4.0654
X3.5126Y-4.1654
X3.5126Y-4.2654
X3.5126Y-4.3654
X3.5126Y-4.4654
X3.5126Y-4.5654
X3.5126Y-4.6654
X3.9606Y-5.7283
X4.0591Y-5.7283
X4.1575Y-5.7283
X4.2126Y-2.7654
X4.2126Y-2.8654
X4.2126Y-2.9654
X4.2126Y-3.0654
X4.2126Y-3.1654
X4.2126Y-3.2654
X4.2126Y-3.3654
X4.2126Y-3.4654
X4.2126Y-3.5654
X4.2126Y-3.6654
X4.2126Y-3.7654
X4.2126Y-3.8654
X4.2126Y-3.9654
X4.2126Y-4.0654
X4.2126Y-4.1654
X4.2126Y-4.2654
X4.2126Y-4.3654
X4.2126Y-4.4654
X4.2126Y-4.5654
X4.2126Y-4.6654
X4.4291Y-4.0992
X4.4291Y-4.1992
X4.4291Y-4.2992
X4.4291Y-4.3992
X4.4291Y-4.4992
X4.4291Y-4.5992
X4.4488Y-2.7756
X4.6181Y-6.4567
X4.6181Y-6.5945
X4.6362Y-7.2244
X4.6362Y-7.3622
X4.6362Y-7.9724
X4.6362Y-8.1102
X4.6516Y-5.7283
X4.75Y-5.7283
X4.8484Y-5.7283
X4.9695Y-6.2598
X4.9774Y-6.4173
X5.0695Y-6.2598
X5.0774Y-6.4173
X5.878Y-2.8007
X5.878Y-3.4487
X5.878Y-4.0015
X5.878Y-4.6511
X5.8801Y-5.2023
X5.8801Y-5.8519
X6.8031Y-2.8204
X6.8031Y-3.3519
X6.8031Y-4.0212
X6.8031Y-4.5527
X6.8053Y-5.222
X6.8053Y-5.7535
X7.7559Y-6.3081
X7.7559Y-6.4081
X9.2323Y-2.9251
X9.2323Y-3.4566
X9.2323Y-4.0799
X9.2323Y-4.6114
X9.2323Y-5.2346
X9.2323Y-5.7661
X10.1575Y-2.8198
X10.1575Y-3.4763
X10.1575Y-3.9788
X10.1575Y-4.6311
X10.1575Y-5.1335
X10.1575Y-5.7858
T6
X2.5217Y-5.2028
X2.5217Y-5.3799
X2.5217Y-5.5866
X2.5217Y-5.7638
X2.7776Y-5.2028
X2.7776Y-5.3799
X2.7776Y-5.5866
X2.7776Y-5.7638
X5.0709Y-6.9685
X5.0709Y-7.1654
X5.0709Y-7.3622
X5.0709Y-7.6772
X5.0709Y-7.874
X5.0709Y-8.0709
X6.3866Y-3.47
X6.3866Y-4.6708
X6.3888Y-5.8716
X6.4866Y-3.47
X6.4866Y-4.6708
X6.4888Y-5.8716
X6.5866Y-3.47
X6.5866Y-4.6708
X6.5888Y-5.8716
X6.7079Y-6.378
X6.7079Y-6.6229
X6.7079Y-6.8679
X6.8079Y-6.378
X6.8079Y-6.6229
X6.8079Y-6.8679
X6.9079Y-6.378
X6.9079Y-6.6229
X6.9079Y-6.8679
X7.4724Y-2.7598
X7.4724Y-2.8598
X7.4724Y-2.9598
X7.4724Y-3.2125
X7.4724Y-3.3125
X7.4724Y-3.4125
X7.4724Y-3.9606
X7.4724Y-4.0606
X7.4724Y-4.1606
X7.4724Y-4.4133
X7.4724Y-4.5133
X7.4724Y-4.6133
X7.4746Y-5.1613
X7.4746Y-5.2613
X7.4746Y-5.3613
X7.4746Y-5.6141
X7.4746Y-5.7141
X7.4746Y-5.8141
X8.5433Y-7.9921
X8.563Y-2.8645
X8.563Y-2.9645
X8.563Y-3.0645
X8.563Y-3.3172
X8.563Y-3.4172
X8.563Y-3.5172
X8.563Y-4.0193
X8.563Y-4.1193
X8.563Y-4.2193
X8.563Y-4.472
X8.563Y-4.572
X8.563Y-4.672
X8.563Y-5.174
X8.563Y-5.274
X8.563Y-5.374
X8.563Y-5.6268
X8.563Y-5.7268
X8.563Y-5.8268
X8.7402Y-7.9921
X8.937Y-7.9921
X9.2913Y-7.9724
X9.4488Y-2.807
X9.4488Y-3.9618
X9.4488Y-5.1165
X9.4882Y-7.9724
X9.5488Y-2.807
X9.5488Y-3.9618
X9.5488Y-5.1165
X9.6488Y-2.807
X9.6488Y-3.9618
X9.6488Y-5.1165
X9.685Y-7.9724
X10.1772Y-6.9685
X10.1772Y-7.1654
X10.1772Y-7.3622
X10.1969Y-6.2205
X10.1969Y-6.4173
X10.1969Y-6.6142
T7
X6.5256Y-7.437
X6.7224Y-7.437
X7.1024Y-7.437
X7.2992Y-7.437
X7.6791Y-7.437
X7.876Y-7.437
X8.2559Y-7.437
X8.4528Y-7.437
X8.8327Y-7.437
X9.0295Y-7.437
X9.4291Y-7.4606
X9.626Y-7.4606
X10.185Y-7.7264
X10.185Y-7.9232
T8
G00X3.1949Y-5.4587
M15
G01X3.1949Y-5.4469
M16
G05
G00X3.5413Y-5.4587
M15
G01X3.5413Y-5.4469
M16
G05
G00X3.8858Y-5.4587
M15
G01X3.8858Y-5.4469
M16
G05
G00X4.2323Y-5.4587
M15
G01X4.2323Y-5.4469
M16
G05
G00X4.5768Y-5.4587
M15
G01X4.5768Y-5.4469
M16
G05
G00X4.9232Y-5.4587
M15
G01X4.9232Y-5.4469
M16
G05
M30
