%TF.GenerationSoftware,KiCad,Pcbnew,7.0.5*%
%TF.CreationDate,2024-03-16T22:55:45+00:00*%
%TF.ProjectId,PCB,5043422e-6b69-4636-9164-5f7063625858,rev?*%
%TF.SameCoordinates,Original*%
%TF.FileFunction,Soldermask,Top*%
%TF.FilePolarity,Negative*%
%FSLAX46Y46*%
G04 Gerber Fmt 4.6, Leading zero omitted, Abs format (unit mm)*
G04 Created by KiCad (PCBNEW 7.0.5) date 2024-03-16 22:55:45*
%MOMM*%
%LPD*%
G01*
G04 APERTURE LIST*
G04 Aperture macros list*
%AMRoundRect*
0 Rectangle with rounded corners*
0 $1 Rounding radius*
0 $2 $3 $4 $5 $6 $7 $8 $9 X,Y pos of 4 corners*
0 Add a 4 corners polygon primitive as box body*
4,1,4,$2,$3,$4,$5,$6,$7,$8,$9,$2,$3,0*
0 Add four circle primitives for the rounded corners*
1,1,$1+$1,$2,$3*
1,1,$1+$1,$4,$5*
1,1,$1+$1,$6,$7*
1,1,$1+$1,$8,$9*
0 Add four rect primitives between the rounded corners*
20,1,$1+$1,$2,$3,$4,$5,0*
20,1,$1+$1,$4,$5,$6,$7,0*
20,1,$1+$1,$6,$7,$8,$9,0*
20,1,$1+$1,$8,$9,$2,$3,0*%
%AMFreePoly0*
4,1,6,1.000000,0.000000,0.500000,-0.750000,-0.500000,-0.750000,-0.500000,0.750000,0.500000,0.750000,1.000000,0.000000,1.000000,0.000000,$1*%
%AMFreePoly1*
4,1,28,0.605014,0.794986,0.644504,0.794986,0.724698,0.756366,0.780194,0.686777,0.800000,0.600000,0.800000,-0.600000,0.780194,-0.686777,0.724698,-0.756366,0.644504,-0.794986,0.605014,-0.794986,0.600000,-0.800000,0.000000,-0.800000,-0.178017,-0.779942,-0.347107,-0.720775,-0.498792,-0.625465,-0.625465,-0.498792,-0.720775,-0.347107,-0.779942,-0.178017,-0.800000,0.000000,-0.779942,0.178017,
-0.720775,0.347107,-0.625465,0.498792,-0.498792,0.625465,-0.347107,0.720775,-0.178017,0.779942,0.000000,0.800000,0.600000,0.800000,0.605014,0.794986,0.605014,0.794986,$1*%
%AMFreePoly2*
4,1,28,0.178017,0.779942,0.347107,0.720775,0.498792,0.625465,0.625465,0.498792,0.720775,0.347107,0.779942,0.178017,0.800000,0.000000,0.779942,-0.178017,0.720775,-0.347107,0.625465,-0.498792,0.498792,-0.625465,0.347107,-0.720775,0.178017,-0.779942,0.000000,-0.800000,-0.600000,-0.800000,-0.605014,-0.794986,-0.644504,-0.794986,-0.724698,-0.756366,-0.780194,-0.686777,-0.800000,-0.600000,
-0.800000,0.600000,-0.780194,0.686777,-0.724698,0.756366,-0.644504,0.794986,-0.605014,0.794986,-0.600000,0.800000,0.000000,0.800000,0.178017,0.779942,0.178017,0.779942,$1*%
G04 Aperture macros list end*
%ADD10R,1.800000X1.800000*%
%ADD11O,1.800000X1.800000*%
%ADD12R,2.000000X2.000000*%
%ADD13C,1.600000*%
%ADD14O,1.600000X1.600000*%
%ADD15R,2.000000X1.905000*%
%ADD16O,2.000000X1.905000*%
%ADD17R,1.500000X1.500000*%
%ADD18FreePoly0,0.000000*%
%ADD19FreePoly0,180.000000*%
%ADD20R,1.600000X1.600000*%
%ADD21R,1.700000X1.700000*%
%ADD22O,1.700000X1.700000*%
%ADD23RoundRect,0.200000X-0.600000X-0.600000X0.600000X-0.600000X0.600000X0.600000X-0.600000X0.600000X0*%
%ADD24FreePoly1,0.000000*%
%ADD25FreePoly2,0.000000*%
%ADD26R,1.650000X1.650000*%
%ADD27C,1.650000*%
%ADD28R,1.000000X1.500000*%
%ADD29C,1.800000*%
G04 APERTURE END LIST*
D10*
%TO.C,D5*%
X234620000Y-103810000D03*
D11*
X227000000Y-103810000D03*
%TD*%
D12*
%TO.C,TP32*%
X239700000Y-176200000D03*
%TD*%
D13*
%TO.C,C1*%
X217170000Y-142160000D03*
X217170000Y-137160000D03*
%TD*%
%TO.C,R14*%
X163500000Y-182550000D03*
D14*
X171120000Y-182550000D03*
%TD*%
D12*
%TO.C,TP5*%
X240970000Y-96190000D03*
%TD*%
%TO.C,TP10*%
X276855000Y-136830000D03*
%TD*%
D13*
%TO.C,R4*%
X246050000Y-174930000D03*
D14*
X253670000Y-174930000D03*
%TD*%
D13*
%TO.C,C2*%
X239740000Y-144450000D03*
X244740000Y-144450000D03*
%TD*%
D15*
%TO.C,Q1*%
X265100000Y-167310000D03*
D16*
X265100000Y-164770000D03*
X265100000Y-162230000D03*
%TD*%
D12*
%TO.C,TP31*%
X239700000Y-171120000D03*
%TD*%
D15*
%TO.C,Q5*%
X265100000Y-216840000D03*
D16*
X265100000Y-214300000D03*
X265100000Y-211760000D03*
%TD*%
D13*
%TO.C,R25*%
X134290000Y-100000000D03*
D14*
X134290000Y-107620000D03*
%TD*%
D17*
%TO.C,JP5*%
X303600000Y-135890000D03*
X306000000Y-135890000D03*
D18*
X302800000Y-135890000D03*
D19*
X306800000Y-135890000D03*
%TD*%
D10*
%TO.C,D3*%
X234950000Y-182550000D03*
D11*
X227330000Y-182550000D03*
%TD*%
D13*
%TO.C,C5*%
X239780000Y-163500000D03*
X244780000Y-163500000D03*
%TD*%
D20*
%TO.C,U1*%
X227010000Y-149540000D03*
D14*
X227010000Y-152080000D03*
X227010000Y-154620000D03*
X227010000Y-157160000D03*
X234630000Y-157160000D03*
X234630000Y-154620000D03*
X234630000Y-152080000D03*
X234630000Y-149540000D03*
%TD*%
D12*
%TO.C,TP26*%
X240970000Y-152070000D03*
%TD*%
D15*
%TO.C,Q11*%
X265100000Y-130480000D03*
D16*
X265100000Y-127940000D03*
X265100000Y-125400000D03*
%TD*%
D12*
%TO.C,TP21*%
X152070000Y-83490000D03*
%TD*%
D13*
%TO.C,R5*%
X246050000Y-190170000D03*
D14*
X253670000Y-190170000D03*
%TD*%
D12*
%TO.C,TP29*%
X276530000Y-174930000D03*
%TD*%
%TO.C,TP20*%
X177470000Y-187630000D03*
%TD*%
D13*
%TO.C,R7*%
X246050000Y-91110000D03*
D14*
X253670000Y-91110000D03*
%TD*%
D12*
%TO.C,TP28*%
X276855000Y-154610000D03*
%TD*%
%TO.C,TP19*%
X177470000Y-182550000D03*
%TD*%
D13*
%TO.C,R16*%
X183820000Y-177470000D03*
D14*
X191440000Y-177470000D03*
%TD*%
D12*
%TO.C,TP1*%
X218110000Y-91110000D03*
%TD*%
D15*
%TO.C,Q9*%
X264775000Y-106350000D03*
D16*
X264775000Y-103810000D03*
X264775000Y-101270000D03*
%TD*%
D20*
%TO.C,U6*%
X227010000Y-108900000D03*
D14*
X227010000Y-111440000D03*
X227010000Y-113980000D03*
X227010000Y-116520000D03*
X234630000Y-116520000D03*
X234630000Y-113980000D03*
X234630000Y-111440000D03*
X234630000Y-108900000D03*
%TD*%
D13*
%TO.C,R13*%
X163500000Y-177470000D03*
D14*
X171120000Y-177470000D03*
%TD*%
D13*
%TO.C,C8*%
X239740000Y-182550000D03*
X244740000Y-182550000D03*
%TD*%
%TO.C,R6*%
X246050000Y-197790000D03*
D14*
X253670000Y-197790000D03*
%TD*%
D12*
%TO.C,TP17*%
X155880000Y-158420000D03*
%TD*%
%TO.C,TP36*%
X152070000Y-138100000D03*
%TD*%
D20*
%TO.C,U7*%
X227010000Y-129220000D03*
D14*
X227010000Y-131760000D03*
X227010000Y-134300000D03*
X227010000Y-136840000D03*
X234630000Y-136840000D03*
X234630000Y-134300000D03*
X234630000Y-131760000D03*
X234630000Y-129220000D03*
%TD*%
D20*
%TO.C,U5*%
X227010000Y-88580000D03*
D14*
X227010000Y-91120000D03*
X227010000Y-93660000D03*
X227010000Y-96200000D03*
X234630000Y-96200000D03*
X234630000Y-93660000D03*
X234630000Y-91120000D03*
X234630000Y-88580000D03*
%TD*%
D20*
%TO.C,U9*%
X145730000Y-174920000D03*
D14*
X148270000Y-174920000D03*
X150810000Y-174920000D03*
X153350000Y-174920000D03*
X153350000Y-167300000D03*
X150810000Y-167300000D03*
X148270000Y-167300000D03*
X145730000Y-167300000D03*
%TD*%
D21*
%TO.C,J4*%
X209220000Y-116510000D03*
D22*
X209220000Y-119050000D03*
X209220000Y-121590000D03*
%TD*%
D13*
%TO.C,C7*%
X221880000Y-196520000D03*
X216880000Y-196520000D03*
%TD*%
D12*
%TO.C,TP6*%
X240970000Y-111430000D03*
%TD*%
%TO.C,TP4*%
X240970000Y-91110000D03*
%TD*%
D20*
%TO.C,U8*%
X145730000Y-187620000D03*
D14*
X148270000Y-187620000D03*
X150810000Y-187620000D03*
X153350000Y-187620000D03*
X153350000Y-180000000D03*
X150810000Y-180000000D03*
X148270000Y-180000000D03*
X145730000Y-180000000D03*
%TD*%
D12*
%TO.C,TP14*%
X150800000Y-158420000D03*
%TD*%
D13*
%TO.C,R26*%
X134290000Y-111430000D03*
D14*
X134290000Y-119050000D03*
%TD*%
D12*
%TO.C,TP2*%
X218110000Y-111430000D03*
%TD*%
D13*
%TO.C,R11*%
X246050000Y-131750000D03*
D14*
X253670000Y-131750000D03*
%TD*%
D21*
%TO.C,J7*%
X141910000Y-89855000D03*
D22*
X141910000Y-92395000D03*
X141910000Y-94935000D03*
%TD*%
D15*
%TO.C,Q4*%
X265100000Y-204140000D03*
D16*
X265100000Y-201600000D03*
X265100000Y-199060000D03*
%TD*%
D13*
%TO.C,R22*%
X134290000Y-77140000D03*
D14*
X134290000Y-84760000D03*
%TD*%
D17*
%TO.C,JP3*%
X304730000Y-181610000D03*
X302330000Y-181610000D03*
D19*
X305530000Y-181610000D03*
D18*
X301530000Y-181610000D03*
%TD*%
D21*
%TO.C,J9*%
X141910000Y-78425000D03*
D22*
X141910000Y-80965000D03*
X141910000Y-83505000D03*
%TD*%
D12*
%TO.C,TP16*%
X152070000Y-115240000D03*
%TD*%
D13*
%TO.C,R21*%
X177470000Y-164770000D03*
D14*
X177470000Y-172390000D03*
%TD*%
D13*
%TO.C,C3*%
X239780000Y-83490000D03*
X244780000Y-83490000D03*
%TD*%
D12*
%TO.C,TP13*%
X163500000Y-192710000D03*
%TD*%
D10*
%TO.C,D4*%
X234620000Y-83490000D03*
D11*
X227000000Y-83490000D03*
%TD*%
D13*
%TO.C,R28*%
X134290000Y-134290000D03*
D14*
X134290000Y-141910000D03*
%TD*%
D13*
%TO.C,C9*%
X233310000Y-204140000D03*
X228310000Y-204140000D03*
%TD*%
D21*
%TO.C,J8*%
X141910000Y-101270000D03*
D22*
X141910000Y-103810000D03*
X141910000Y-106350000D03*
%TD*%
D12*
%TO.C,TP18*%
X177470000Y-177470000D03*
%TD*%
D13*
%TO.C,R18*%
X183820000Y-187630000D03*
D14*
X191440000Y-187630000D03*
%TD*%
D13*
%TO.C,R8*%
X246050000Y-96190000D03*
D14*
X253670000Y-96190000D03*
%TD*%
D20*
%TO.C,U3*%
X227000000Y-187640000D03*
D14*
X227000000Y-190180000D03*
X227000000Y-192720000D03*
X227000000Y-195260000D03*
X234620000Y-195260000D03*
X234620000Y-192720000D03*
X234620000Y-190180000D03*
X234620000Y-187640000D03*
%TD*%
D12*
%TO.C,TP27*%
X240970000Y-157150000D03*
%TD*%
D23*
%TO.C,U4*%
X168580000Y-78410000D03*
D13*
X168580000Y-80950000D03*
D24*
X168580000Y-83490000D03*
D13*
X168580000Y-86030000D03*
X168580000Y-88570000D03*
X168580000Y-91110000D03*
X168580000Y-93650000D03*
D24*
X168580000Y-96190000D03*
D13*
X168580000Y-98730000D03*
X168580000Y-101270000D03*
X168580000Y-103810000D03*
X168580000Y-106350000D03*
D24*
X168580000Y-108890000D03*
D13*
X168580000Y-111430000D03*
X168580000Y-113970000D03*
X168580000Y-116510000D03*
X168580000Y-119050000D03*
D24*
X168580000Y-121590000D03*
D13*
X168580000Y-124130000D03*
X168580000Y-126670000D03*
X186360000Y-126670000D03*
X186360000Y-124130000D03*
D25*
X186360000Y-121590000D03*
D13*
X186360000Y-119050000D03*
X186360000Y-116510000D03*
X186360000Y-113970000D03*
X186360000Y-111430000D03*
D25*
X186360000Y-108890000D03*
D13*
X186360000Y-106350000D03*
X186360000Y-103810000D03*
X186360000Y-101270000D03*
X186360000Y-98730000D03*
D25*
X186360000Y-96190000D03*
D13*
X186360000Y-93650000D03*
X186360000Y-91110000D03*
X186360000Y-88570000D03*
X186360000Y-86030000D03*
D25*
X186360000Y-83490000D03*
D13*
X186360000Y-80950000D03*
X186360000Y-78410000D03*
%TD*%
D12*
%TO.C,TP11*%
X240970000Y-131750000D03*
%TD*%
D21*
%TO.C,J11*%
X141910000Y-124130000D03*
D22*
X141910000Y-126670000D03*
X141910000Y-129210000D03*
%TD*%
D12*
%TO.C,TP33*%
X239700000Y-190170000D03*
%TD*%
%TO.C,TP30*%
X276530000Y-210490000D03*
%TD*%
D13*
%TO.C,R1*%
X246050000Y-152070000D03*
D14*
X253670000Y-152070000D03*
%TD*%
D12*
%TO.C,TP8*%
X275585000Y-92380000D03*
%TD*%
D21*
%TO.C,J3*%
X209220000Y-157150000D03*
D22*
X209220000Y-159690000D03*
X209220000Y-162230000D03*
%TD*%
D10*
%TO.C,D1*%
X234620000Y-144450000D03*
D11*
X227000000Y-144450000D03*
%TD*%
D21*
%TO.C,J1*%
X193980000Y-122860000D03*
D22*
X193980000Y-120320000D03*
X193980000Y-117780000D03*
X193980000Y-115240000D03*
X193980000Y-112700000D03*
X193980000Y-110160000D03*
%TD*%
D15*
%TO.C,Q8*%
X264775000Y-93650000D03*
D16*
X264775000Y-91110000D03*
X264775000Y-88570000D03*
%TD*%
D10*
%TO.C,D2*%
X234620000Y-163500000D03*
D11*
X227000000Y-163500000D03*
%TD*%
D13*
%TO.C,R12*%
X246050000Y-136830000D03*
D14*
X253670000Y-136830000D03*
%TD*%
D12*
%TO.C,TP15*%
X145720000Y-158420000D03*
%TD*%
D13*
%TO.C,R3*%
X246050000Y-169850000D03*
D14*
X253670000Y-169850000D03*
%TD*%
D12*
%TO.C,TP25*%
X220650000Y-188900000D03*
%TD*%
%TO.C,TP22*%
X152070000Y-92380000D03*
%TD*%
%TO.C,TP35*%
X152070000Y-103810000D03*
%TD*%
%TO.C,TP12*%
X240970000Y-136830000D03*
%TD*%
%TO.C,TP24*%
X220650000Y-169850000D03*
%TD*%
D15*
%TO.C,Q7*%
X265100000Y-155880000D03*
D16*
X265100000Y-153340000D03*
X265100000Y-150800000D03*
%TD*%
D13*
%TO.C,R2*%
X246050000Y-157150000D03*
D14*
X253670000Y-157150000D03*
%TD*%
D21*
%TO.C,J10*%
X141910000Y-112700000D03*
D22*
X141910000Y-115240000D03*
X141910000Y-117780000D03*
%TD*%
D13*
%TO.C,C10*%
X232040000Y-75870000D03*
X227040000Y-75870000D03*
%TD*%
D15*
%TO.C,Q10*%
X264775000Y-117780000D03*
D16*
X264775000Y-115240000D03*
X264775000Y-112700000D03*
%TD*%
D12*
%TO.C,TP34*%
X239700000Y-197790000D03*
%TD*%
D13*
%TO.C,R19*%
X167310000Y-172390000D03*
D14*
X167310000Y-164770000D03*
%TD*%
D12*
%TO.C,TP3*%
X218110000Y-131750000D03*
%TD*%
D17*
%TO.C,JP4*%
X304940000Y-148590000D03*
X307340000Y-148590000D03*
D18*
X304140000Y-148590000D03*
D19*
X308140000Y-148590000D03*
%TD*%
D13*
%TO.C,R27*%
X134290000Y-123190000D03*
D14*
X134290000Y-130810000D03*
%TD*%
D13*
%TO.C,R17*%
X183820000Y-182550000D03*
D14*
X191440000Y-182550000D03*
%TD*%
D12*
%TO.C,TP7*%
X240970000Y-116510000D03*
%TD*%
%TO.C,TP9*%
X276855000Y-113970000D03*
%TD*%
D21*
%TO.C,J13*%
X157150000Y-214300000D03*
D22*
X159690000Y-214300000D03*
%TD*%
D26*
%TO.C,J2*%
X289260000Y-109300000D03*
D27*
X289260000Y-114300000D03*
X289260000Y-119300000D03*
%TD*%
D26*
%TO.C,J5*%
X288290000Y-171450000D03*
D27*
X288290000Y-176450000D03*
X288290000Y-181450000D03*
%TD*%
D15*
%TO.C,Q3*%
X265100000Y-180010000D03*
D16*
X265100000Y-177470000D03*
X265100000Y-174930000D03*
%TD*%
D21*
%TO.C,J12*%
X141910000Y-135575000D03*
D22*
X141910000Y-138115000D03*
X141910000Y-140655000D03*
%TD*%
D13*
%TO.C,R10*%
X246050000Y-116510000D03*
D14*
X253670000Y-116510000D03*
%TD*%
D13*
%TO.C,R24*%
X146990000Y-201600000D03*
D14*
X154610000Y-201600000D03*
%TD*%
D13*
%TO.C,R9*%
X246050000Y-111430000D03*
D14*
X253670000Y-111430000D03*
%TD*%
D28*
%TO.C,JP6*%
X145660000Y-192710000D03*
X146960000Y-192710000D03*
X148260000Y-192710000D03*
%TD*%
D15*
%TO.C,Q12*%
X265100000Y-141910000D03*
D16*
X265100000Y-139370000D03*
X265100000Y-136830000D03*
%TD*%
D13*
%TO.C,R15*%
X163500000Y-187630000D03*
D14*
X171120000Y-187630000D03*
%TD*%
D15*
%TO.C,Q2*%
X265100000Y-191440000D03*
D16*
X265100000Y-188900000D03*
X265100000Y-186360000D03*
%TD*%
D15*
%TO.C,Q6*%
X264775000Y-82220000D03*
D16*
X264775000Y-79680000D03*
X264775000Y-77140000D03*
%TD*%
D10*
%TO.C,D6*%
X234620000Y-124130000D03*
D11*
X227000000Y-124130000D03*
%TD*%
D13*
%TO.C,C4*%
X239740000Y-103810000D03*
X244740000Y-103810000D03*
%TD*%
%TO.C,R20*%
X172390000Y-172390000D03*
D14*
X172390000Y-164770000D03*
%TD*%
D12*
%TO.C,TP23*%
X219380000Y-152070000D03*
%TD*%
D10*
%TO.C,J6*%
X242570000Y-212090000D03*
D29*
X242570000Y-217090000D03*
%TD*%
D12*
%TO.C,TP37*%
X152070000Y-126670000D03*
%TD*%
D13*
%TO.C,C6*%
X239740000Y-124130000D03*
X244740000Y-124130000D03*
%TD*%
%TO.C,R23*%
X134290000Y-88570000D03*
D14*
X134290000Y-96190000D03*
%TD*%
D20*
%TO.C,U2*%
X227010000Y-168590000D03*
D14*
X227010000Y-171130000D03*
X227010000Y-173670000D03*
X227010000Y-176210000D03*
X234630000Y-176210000D03*
X234630000Y-173670000D03*
X234630000Y-171130000D03*
X234630000Y-168590000D03*
%TD*%
M02*
