M48
; DRILL file {KiCad 7.0.5} date Sat Mar 16 22:55:50 2024
; FORMAT={-:-/ absolute / inch / decimal}
; #@! TF.CreationDate,2024-03-16T22:55:50+00:00
; #@! TF.GenerationSoftware,Kicad,Pcbnew,7.0.5
; #@! TF.FileFunction,Plated,1,2,PTH
FMAT,2
INCH
; #@! TA.AperFunction,Plated,PTH,ComponentDrill
T1C0.0315
; #@! TA.AperFunction,Plated,PTH,ComponentDrill
T2C0.0354
; #@! TA.AperFunction,Plated,PTH,ViaDrill
T3C0.0394
; #@! TA.AperFunction,Plated,PTH,ComponentDrill
T4C0.0394
; #@! TA.AperFunction,Plated,PTH,ComponentDrill
T5C0.0433
; #@! TA.AperFunction,Plated,PTH,ViaDrill
T6C0.0472
; #@! TA.AperFunction,Plated,PTH,ComponentDrill
T7C0.0472
; #@! TA.AperFunction,Plated,PTH,ViaDrill
T8C0.0591
%
G90
G05
T1
X5.287Y-3.037
X5.287Y-3.337
X5.287Y-3.487
X5.287Y-3.787
X5.287Y-3.937
X5.287Y-4.237
X5.287Y-4.387
X5.287Y-4.687
X5.287Y-4.85
X5.287Y-5.15
X5.287Y-5.287
X5.287Y-5.587
X5.7374Y-6.5866
X5.7374Y-6.8866
X5.7374Y-7.0866
X5.7374Y-7.3866
X5.787Y-7.937
X5.8374Y-6.5866
X5.8374Y-6.8866
X5.8374Y-7.0866
X5.8374Y-7.3866
X5.9374Y-6.5866
X5.9374Y-6.8866
X5.9374Y-7.0866
X5.9374Y-7.3866
X6.0374Y-6.5866
X6.0374Y-6.8866
X6.0374Y-7.0866
X6.0374Y-7.3866
X6.087Y-7.937
X6.437Y-6.987
X6.437Y-7.187
X6.437Y-7.387
X6.587Y-6.487
X6.587Y-6.787
X6.737Y-6.987
X6.737Y-7.187
X6.737Y-7.387
X6.787Y-6.487
X6.787Y-6.787
X6.987Y-6.487
X6.987Y-6.787
X7.237Y-6.987
X7.237Y-7.187
X7.237Y-7.387
X7.537Y-6.987
X7.537Y-7.187
X7.537Y-7.387
X8.5386Y-7.737
X8.55Y-5.4
X8.55Y-5.5969
X8.7354Y-7.737
X8.937Y-7.3874
X8.937Y-7.4874
X8.937Y-7.5874
X8.937Y-7.6874
X8.9374Y-3.4874
X8.9374Y-3.5874
X8.9374Y-3.6874
X8.9374Y-3.7874
X8.9374Y-4.2874
X8.9374Y-4.3874
X8.9374Y-4.4874
X8.9374Y-4.5874
X8.9374Y-5.0874
X8.9374Y-5.1874
X8.9374Y-5.2874
X8.9374Y-5.3874
X8.9374Y-5.8874
X8.9374Y-5.9874
X8.9374Y-6.0874
X8.9374Y-6.1874
X8.9374Y-6.6374
X8.9374Y-6.7374
X8.9374Y-6.8374
X8.9374Y-6.9374
X8.9386Y-2.987
X8.9886Y-8.037
X9.1354Y-2.987
X9.1854Y-8.037
X9.237Y-7.3874
X9.237Y-7.4874
X9.237Y-7.5874
X9.237Y-7.6874
X9.2374Y-3.4874
X9.2374Y-3.5874
X9.2374Y-3.6874
X9.2374Y-3.7874
X9.2374Y-4.2874
X9.2374Y-4.3874
X9.2374Y-4.4874
X9.2374Y-4.5874
X9.2374Y-5.0874
X9.2374Y-5.1874
X9.2374Y-5.2874
X9.2374Y-5.3874
X9.2374Y-5.8874
X9.2374Y-5.9874
X9.2374Y-6.0874
X9.2374Y-6.1874
X9.2374Y-6.6374
X9.2374Y-6.7374
X9.2374Y-6.8374
X9.2374Y-6.9374
X9.4386Y-4.087
X9.4386Y-4.887
X9.4386Y-5.687
X9.4386Y-7.187
X9.4402Y-3.287
X9.4402Y-6.437
X9.6354Y-4.087
X9.6354Y-4.887
X9.6354Y-5.687
X9.6354Y-7.187
X9.637Y-3.287
X9.637Y-6.437
X9.687Y-3.587
X9.687Y-3.787
X9.687Y-4.387
X9.687Y-4.587
X9.687Y-5.187
X9.687Y-5.387
X9.687Y-5.987
X9.687Y-6.187
X9.687Y-6.687
X9.687Y-6.887
X9.687Y-7.487
X9.687Y-7.787
X9.987Y-3.587
X9.987Y-3.787
X9.987Y-4.387
X9.987Y-4.587
X9.987Y-5.187
X9.987Y-5.387
X9.987Y-5.987
X9.987Y-6.187
X9.987Y-6.687
X9.987Y-6.887
X9.987Y-7.487
X9.987Y-7.787
T2
X8.937Y-3.287
X8.937Y-4.087
X8.937Y-4.887
X8.937Y-5.687
X8.937Y-6.437
X8.95Y-7.187
X9.237Y-3.287
X9.237Y-4.087
X9.237Y-4.887
X9.237Y-5.687
X9.237Y-6.437
X9.25Y-7.187
T3
X11.8Y-5.9
X11.9458Y-6.3981
X12.3Y-5.85
T4
X5.587Y-3.0876
X5.587Y-3.1876
X5.587Y-3.2876
X5.587Y-3.5376
X5.587Y-3.6376
X5.587Y-3.7376
X5.587Y-3.987
X5.587Y-4.087
X5.587Y-4.187
X5.587Y-4.437
X5.587Y-4.537
X5.587Y-4.637
X5.587Y-4.887
X5.587Y-4.987
X5.587Y-5.087
X5.587Y-5.3376
X5.587Y-5.4376
X5.587Y-5.5376
X5.737Y-6.237
X5.937Y-6.237
X5.987Y-3.287
X5.987Y-3.637
X5.987Y-4.087
X5.987Y-4.537
X5.987Y-4.987
X5.987Y-5.437
X6.137Y-6.237
X6.187Y-8.437
X6.287Y-8.437
X6.437Y-7.587
X6.637Y-3.087
X6.637Y-3.187
X6.637Y-3.287
X6.637Y-3.387
X6.637Y-3.487
X6.637Y-3.587
X6.637Y-3.687
X6.637Y-3.787
X6.637Y-3.887
X6.637Y-3.987
X6.637Y-4.087
X6.637Y-4.187
X6.637Y-4.287
X6.637Y-4.387
X6.637Y-4.487
X6.637Y-4.587
X6.637Y-4.687
X6.637Y-4.787
X6.637Y-4.887
X6.637Y-4.987
X6.987Y-6.987
X6.987Y-7.187
X6.987Y-7.387
X7.337Y-3.087
X7.337Y-3.187
X7.337Y-3.287
X7.337Y-3.387
X7.337Y-3.487
X7.337Y-3.587
X7.337Y-3.687
X7.337Y-3.787
X7.337Y-3.887
X7.337Y-3.987
X7.337Y-4.087
X7.337Y-4.187
X7.337Y-4.287
X7.337Y-4.387
X7.337Y-4.487
X7.337Y-4.587
X7.337Y-4.687
X7.337Y-4.787
X7.337Y-4.887
X7.337Y-4.987
X7.637Y-4.337
X7.637Y-4.437
X7.637Y-4.537
X7.637Y-4.637
X7.637Y-4.737
X7.637Y-4.837
X8.237Y-4.587
X8.237Y-4.687
X8.237Y-4.787
X8.237Y-6.187
X8.237Y-6.287
X8.237Y-6.387
X8.587Y-3.587
X8.587Y-4.387
X8.587Y-5.187
X8.637Y-5.987
X8.687Y-6.687
X8.687Y-7.437
X9.437Y-6.737
X9.437Y-6.937
X9.437Y-7.487
X9.437Y-7.787
X9.487Y-3.587
X9.487Y-3.787
X9.487Y-4.387
X9.487Y-4.587
X9.487Y-5.187
X9.487Y-5.387
X9.487Y-5.987
X9.487Y-6.187
X10.8498Y-3.637
X10.887Y-6.887
X10.887Y-8.287
X10.8998Y-4.487
X10.8998Y-5.387
X10.8998Y-6.087
T5
X10.4242Y-3.037
X10.4242Y-3.137
X10.4242Y-3.237
X10.4242Y-3.487
X10.4242Y-3.587
X10.4242Y-3.687
X10.4242Y-3.987
X10.4242Y-4.087
X10.4242Y-4.187
X10.4242Y-4.437
X10.4242Y-4.537
X10.4242Y-4.637
X10.437Y-4.937
X10.437Y-5.037
X10.437Y-5.137
X10.437Y-5.387
X10.437Y-5.487
X10.437Y-5.587
X10.437Y-5.937
X10.437Y-6.037
X10.437Y-6.137
X10.437Y-6.387
X10.437Y-6.487
X10.437Y-6.587
X10.437Y-6.887
X10.437Y-6.987
X10.437Y-7.087
X10.437Y-7.337
X10.437Y-7.437
X10.437Y-7.537
X10.437Y-7.837
X10.437Y-7.937
X10.437Y-8.037
X10.437Y-8.337
X10.437Y-8.437
X10.437Y-8.537
X11.35Y-6.75
X11.35Y-6.9469
X11.35Y-7.1437
X11.3882Y-4.3031
X11.3882Y-4.5
X11.3882Y-4.6969
T6
X7.9Y-7.55
T7
X9.55Y-8.35
X9.55Y-8.5469
T8
X7.7Y-7.6
X11.8Y-5.4
X11.9Y-6.9
T0
M30
